<svg id="SvgjsSvg1001" width="288" height="288" xmlns="http://www.w3.org/2000/svg" version="1.1" xmlnsXlink="http://www.w3.org/1999/xlink" xmlnsSvgjs="http://svgjs.com/svgjs"><defs id="SvgjsDefs1002"></defs><g id="SvgjsG1008"><svg xmlns="http://www.w3.org/2000/svg" viewBox="0 0 1000 992.63" width="288" height="288"><path fill="#d6d6d6" d="M964.66,325c26.17,200-108.49,440-297.3,516.4,256.58-132,343.84-509.85,153.39-716.67C636.68-75.11,290.34-22.3,119.16,194.06c160-122,435-125.79,595-.11C471.06,37.17,103.52,153,16.38,420.77c-80.64,247.8,149.07,541.91,412.79,571.86-186.27-77-327.9-313.63-299-515.43C116,765.48,399.57,1027.05,674.41,968.1,937.91,911.58,1067.66,566,964.66,325ZM318.25,697.81c-103.9-103.9-103.9-272.36,0-376.25s272.35-103.9,376.25,0,103.9,272.35,0,376.25S422.15,801.7,318.25,697.81Z" data-name="iconic mark" class="color211e1f svgShape"></path></svg></g></svg>